<?xml version="1.0" standalone="no"?>
<!DOCTYPE svg PUBLIC "-//W3C//DTD SVG 20010904//EN"
 "http://www.w3.org/TR/2001/REC-SVG-20010904/DTD/svg10.dtd">
<svg version="1.0" xmlns="http://www.w3.org/2000/svg"
 width="2048.000000pt" height="2048.000000pt" viewBox="0 0 2048.000000 2048.000000"
 preserveAspectRatio="xMidYMid meet">

<g transform="translate(0.000000,2048.000000) scale(0.100000,-0.100000)"
fill="#DA4A2BFF" stroke="none">
<path d="M9685 13110 c-936 -76 -1853 -470 -2650 -1138 -136 -115 -462 -439
-597 -595 -563 -651 -956 -1417 -1178 -2294 -130 -513 -158 -1042 -79 -1518
53 -322 164 -632 308 -864 202 -325 445 -549 766 -707 218 -107 426 -156 660
-156 378 -1 734 142 1011 405 266 253 417 602 401 922 -23 433 -311 818 -694
927 -60 17 -105 22 -193 22 -137 1 -208 -16 -330 -76 -110 -54 -237 -177 -292
-283 -40 -78 -78 -185 -78 -223 0 -61 69 -118 129 -106 36 7 78 53 87 92 34
156 122 265 272 339 76 38 77 38 201 38 106 0 137 -4 194 -24 209 -72 386
-274 463 -528 24 -77 27 -105 27 -223 0 -163 -19 -246 -92 -396 -113 -231
-282 -401 -524 -529 -424 -224 -910 -190 -1334 94 -103 69 -266 220 -352 325
-297 364 -444 823 -458 1436 -9 369 20 620 114 995 249 1002 771 1895 1515
2593 575 540 1235 920 1953 1123 803 228 1500 195 2275 -106 223 -87 499 -221
684 -332 57 -35 58 -36 52 -72 -76 -437 -69 -968 20 -1471 14 -79 30 -152 35
-162 28 -52 122 -66 164 -24 38 38 40 67 12 225 -112 623 -93 1318 42 1608 39
83 63 97 149 89 315 -32 639 -199 952 -489 63 -59 126 -110 140 -114 14 -4 74
4 135 17 146 30 288 37 384 16 150 -32 213 -82 352 -286 153 -222 542 -807
748 -1124 192 -295 201 -311 201 -358 0 -30 -5 -50 -12 -53 -7 -2 -256 -9
-553 -14 -297 -6 -801 -16 -1120 -22 -642 -12 -629 -11 -661 -77 -15 -32 -15
-41 -3 -77 26 -75 20 -74 529 -65 836 17 1405 30 1549 36 l144 6 -31 -40 c-42
-53 -206 -209 -278 -264 -305 -234 -727 -426 -1129 -512 -211 -45 -248 -50
-375 -50 -102 0 -145 5 -230 26 -248 62 -454 169 -705 367 -49 39 -99 71 -111
71 -12 0 -100 -18 -197 -40 -173 -38 -697 -142 -789 -155 -44 -7 -50 -5 -89
29 -51 44 -95 54 -138 32 -51 -27 -76 -99 -51 -146 6 -10 108 -106 228 -213
119 -106 263 -235 319 -285 l103 -92 147 0 c145 0 242 -9 334 -31 l47 -10 -23
-25 c-27 -30 -36 -69 -23 -103 5 -14 51 -65 102 -113 133 -125 155 -183 79
-214 -43 -18 -200 -33 -350 -34 l-113 0 -372 267 c-205 147 -524 374 -708 506
-285 203 -336 243 -341 269 -4 16 -10 148 -14 293 l-7 263 24 16 c23 15 190
89 793 353 132 58 246 110 254 116 8 7 20 27 28 45 27 64 -23 142 -91 142 -18
0 -167 -60 -361 -146 -181 -80 -415 -182 -520 -226 -220 -94 -264 -121 -302
-186 -31 -53 -32 -73 -24 -502 l4 -205 -34 -7 c-143 -29 -660 -56 -914 -48
l-150 5 -32 478 c-31 477 -32 478 -61 540 -16 34 -44 77 -63 96 -65 66 -109
78 -405 111 -148 16 -491 54 -762 85 -548 61 -533 61 -568 -6 -30 -59 10 -140
74 -153 15 -3 176 -21 357 -41 696 -75 1052 -117 1099 -128 85 -21 83 -15 111
-402 13 -187 33 -484 44 -660 32 -499 30 -482 52 -510 11 -13 37 -29 57 -34
20 -5 66 -17 102 -26 135 -33 280 -138 345 -248 26 -45 27 -50 11 -65 -15 -15
-58 -17 -446 -17 -416 0 -430 1 -449 20 -19 19 -113 308 -226 690 -54 180 -66
209 -98 229 -23 14 -17 14 -978 53 l-427 17 -55 -34 c-87 -52 -250 -193 -328
-283 -192 -221 -325 -493 -390 -797 -31 -141 -34 -440 -6 -570 112 -530 508
-899 967 -900 334 0 627 210 716 516 24 83 21 209 -6 299 -66 214 -208 349
-411 391 -88 18 -131 7 -160 -40 -47 -77 1 -166 89 -166 134 0 258 -122 293
-287 31 -153 -89 -352 -264 -438 -107 -52 -185 -68 -292 -62 -323 19 -609 289
-712 672 -24 91 -27 117 -27 280 0 163 3 192 28 300 35 151 65 235 128 358 94
184 249 372 397 484 l81 62 108 -5 c59 -3 283 -11 497 -20 215 -8 440 -17 502
-21 l112 -6 20 -61 c11 -34 61 -196 111 -361 120 -397 114 -382 175 -441 83
-82 97 -85 485 -96 428 -12 547 -8 621 21 120 46 188 140 176 241 -7 61 -61
166 -119 234 -93 108 -253 213 -381 250 -32 9 -60 22 -62 29 -2 7 -6 56 -10
110 l-6 97 138 -6 c241 -11 848 26 1005 62 l67 15 48 -32 c69 -47 474 -334
783 -556 464 -332 601 -425 633 -432 42 -10 427 5 496 18 126 25 233 102 262
188 25 76 2 180 -63 285 l-23 37 23 24 c30 32 38 92 20 137 -66 156 -290 247
-661 266 l-131 7 -143 125 c-79 69 -143 128 -143 132 0 4 111 29 247 55 135
26 311 62 390 80 l145 32 88 -66 c315 -237 649 -373 950 -387 222 -11 606 66
910 183 130 49 374 167 491 236 364 214 666 512 773 762 26 60 30 82 30 155
-1 54 -7 101 -17 128 -40 105 -1008 1558 -1115 1674 -94 101 -216 164 -365
188 -97 16 -329 8 -410 -14 l-59 -16 -94 85 c-293 265 -621 438 -937 495 -142
26 -221 26 -291 0 -61 -23 -131 -90 -166 -161 -12 -24 -24 -46 -25 -47 -2 -2
-34 14 -72 36 -101 59 -345 182 -469 236 -369 163 -746 272 -1092 316 -177 23
-533 33 -697 20z"/>
<path d="M13490 11694 c-30 -8 -92 -32 -137 -55 -282 -141 -422 -470 -329
-772 51 -163 188 -324 336 -395 153 -74 295 -90 444 -52 203 52 352 175 442
364 86 180 81 380 -13 575 -26 56 -55 94 -117 156 -93 93 -181 144 -302 175
-92 24 -242 26 -324 4z m263 -209 c203 -53 336 -224 337 -432 0 -167 -100
-322 -258 -396 -63 -30 -73 -32 -182 -32 -111 0 -118 1 -185 34 -82 40 -162
116 -199 189 -92 182 -68 367 67 510 115 120 268 167 420 127z"/>
<path d="M13581 11174 c-62 -52 -58 -147 8 -191 42 -28 86 -29 128 -3 61 37
79 108 43 168 -36 58 -125 71 -179 26z"/>
</g>
</svg>
